<svg viewBox="0 0 56 20" >
    <g id="Tools" stroke="none" stroke-width="1" fill="none" fill-rule="evenodd">
        <g id="Connection-Diagnostic" transform="translate(-618.000000, -187.000000)">
            <g id="Pdu" transform="translate(618.000000, 187.000000)">
                <g id="Group-5">
                    <rect id="Rectangle-8" fill="#4A4A4A" transform="translate(27.731120, 15.190972) scale(1, -1) translate(-27.731120, -15.190972) " x="0" y="10.6336806" width="55.4622396" height="9.11458333" rx="2"></rect>
                    <path d="M4.12363789,4.54747351e-13 L51.628907,4.54747351e-13 L55.2968046,11.4331354 C54.9046295,11.5595826 54.3402509,11.737532 53.6036686,11.9669836 C41.7180515,12.1662067 24.3304877,12.170123 1.44097709,11.9787325 L1.44097702,11.9787413 C0.888706718,11.9741235 0.444746652,11.5226765 0.449364456,10.9704062 C0.450255955,10.8637866 0.46819306,10.7579958 0.502496251,10.6570413 L4.12363789,4.54747351e-13 Z" id="Rectangle-8-Copy" fill="#4A4A4A"></path>
                    <path d="M2,10 L53.4622015,10 C54.566771,10 55.4622015,10.8954305 55.4622015,12 L55.4622015,16.6805556 C55.4622015,17.7851251 54.566771,18.6805556 53.4622015,18.6805556 L2,18.6805556 C0.8954305,18.6805556 1.3527075e-16,17.7851251 0,16.6805556 L0,12 C-1.3527075e-16,10.8954305 0.8954305,10 2,10 Z" id="Rectangle-8-Copy-2" fill="#4A4A4A"></path>
                    <g id="Group-3" transform="translate(4.000000, 12.000000)">
                        <g id="Group-7">
                            <rect id="Rectangle-11" fill="#FFFFFF" x="0" y="0" width="4.3908069" height="4.3908069" rx="1"></rect>
                            <path d="M1.63420344,2.30242937 C1.63420344,2.40927986 1.54758401,2.4958993 1.44073352,2.4958993 L1.24726359,2.4958993 C1.14041309,2.4958993 1.05379366,2.40927986 1.05379366,2.30242937 L1.05379366,1.33507972 C1.05379366,1.22822923 1.14041309,1.1416098 1.24726359,1.1416098 L1.44073352,1.1416098 C1.54758401,1.1416098 1.63420344,1.22822923 1.63420344,1.33507972 L1.63420344,2.30242937 Z M2.61801862,3.258802 L1.8441389,3.258802 L1.8441389,3.06533207 C1.8441389,2.85163109 2.01737778,2.67839221 2.23107876,2.67839221 C2.44477974,2.67839221 2.61801862,2.85163109 2.61801862,3.06533207 L2.61801862,3.258802 Z M3.39052621,2.30242937 C3.39052621,2.40927986 3.30390677,2.4958993 3.19705628,2.4958993 L3.00358635,2.4958993 C2.89673586,2.4958993 2.81011642,2.40927986 2.81011642,2.30242937 L2.81011642,1.33507972 C2.81011642,1.22822923 2.89673586,1.1416098 3.00358635,1.1416098 L3.19705628,1.1416098 C3.30390677,1.1416098 3.39052621,1.22822923 3.39052621,1.33507972 L3.39052621,2.30242937 Z" id="Combined-Shape" fill="#4A4A4A"></path>
                        </g>
                        <g id="Group-7-Copy-4" transform="translate(12.327044, 0.000000)">
                            <rect id="Rectangle-11" fill="#FFFFFF" x="0" y="0" width="4.3908069" height="4.3908069" rx="1"></rect>
                            <path d="M1.63420344,2.30242937 C1.63420344,2.40927986 1.54758401,2.4958993 1.44073352,2.4958993 L1.24726359,2.4958993 C1.14041309,2.4958993 1.05379366,2.40927986 1.05379366,2.30242937 L1.05379366,1.33507972 C1.05379366,1.22822923 1.14041309,1.1416098 1.24726359,1.1416098 L1.44073352,1.1416098 C1.54758401,1.1416098 1.63420344,1.22822923 1.63420344,1.33507972 L1.63420344,2.30242937 Z M2.61801862,3.258802 L1.8441389,3.258802 L1.8441389,3.06533207 C1.8441389,2.85163109 2.01737778,2.67839221 2.23107876,2.67839221 C2.44477974,2.67839221 2.61801862,2.85163109 2.61801862,3.06533207 L2.61801862,3.258802 Z M3.39052621,2.30242937 C3.39052621,2.40927986 3.30390677,2.4958993 3.19705628,2.4958993 L3.00358635,2.4958993 C2.89673586,2.4958993 2.81011642,2.40927986 2.81011642,2.30242937 L2.81011642,1.33507972 C2.81011642,1.22822923 2.89673586,1.1416098 3.00358635,1.1416098 L3.19705628,1.1416098 C3.30390677,1.1416098 3.39052621,1.22822923 3.39052621,1.33507972 L3.39052621,2.30242937 Z" id="Combined-Shape" fill="#4A4A4A"></path>
                        </g>
                        <g id="Group-7-Copy-8" transform="translate(24.433962, 0.000000)">
                            <rect id="Rectangle-11" fill="#FFFFFF" x="0" y="0" width="4.3908069" height="4.3908069" rx="1"></rect>
                            <path d="M1.63420344,2.30242937 C1.63420344,2.40927986 1.54758401,2.4958993 1.44073352,2.4958993 L1.24726359,2.4958993 C1.14041309,2.4958993 1.05379366,2.40927986 1.05379366,2.30242937 L1.05379366,1.33507972 C1.05379366,1.22822923 1.14041309,1.1416098 1.24726359,1.1416098 L1.44073352,1.1416098 C1.54758401,1.1416098 1.63420344,1.22822923 1.63420344,1.33507972 L1.63420344,2.30242937 Z M2.61801862,3.258802 L1.8441389,3.258802 L1.8441389,3.06533207 C1.8441389,2.85163109 2.01737778,2.67839221 2.23107876,2.67839221 C2.44477974,2.67839221 2.61801862,2.85163109 2.61801862,3.06533207 L2.61801862,3.258802 Z M3.39052621,2.30242937 C3.39052621,2.40927986 3.30390677,2.4958993 3.19705628,2.4958993 L3.00358635,2.4958993 C2.89673586,2.4958993 2.81011642,2.40927986 2.81011642,2.30242937 L2.81011642,1.33507972 C2.81011642,1.22822923 2.89673586,1.1416098 3.00358635,1.1416098 L3.19705628,1.1416098 C3.30390677,1.1416098 3.39052621,1.22822923 3.39052621,1.33507972 L3.39052621,2.30242937 Z" id="Combined-Shape" fill="#4A4A4A"></path>
                        </g>
                        <g id="Group-7-Copy-2" transform="translate(6.163522, 0.000000)">
                            <rect id="Rectangle-11" fill="#FFFFFF" x="0" y="0" width="4.3908069" height="4.3908069" rx="1"></rect>
                            <path d="M1.63420344,2.30242937 C1.63420344,2.40927986 1.54758401,2.4958993 1.44073352,2.4958993 L1.24726359,2.4958993 C1.14041309,2.4958993 1.05379366,2.40927986 1.05379366,2.30242937 L1.05379366,1.33507972 C1.05379366,1.22822923 1.14041309,1.1416098 1.24726359,1.1416098 L1.44073352,1.1416098 C1.54758401,1.1416098 1.63420344,1.22822923 1.63420344,1.33507972 L1.63420344,2.30242937 Z M2.61801862,3.258802 L1.8441389,3.258802 L1.8441389,3.06533207 C1.8441389,2.85163109 2.01737778,2.67839221 2.23107876,2.67839221 C2.44477974,2.67839221 2.61801862,2.85163109 2.61801862,3.06533207 L2.61801862,3.258802 Z M3.39052621,2.30242937 C3.39052621,2.40927986 3.30390677,2.4958993 3.19705628,2.4958993 L3.00358635,2.4958993 C2.89673586,2.4958993 2.81011642,2.40927986 2.81011642,2.30242937 L2.81011642,1.33507972 C2.81011642,1.22822923 2.89673586,1.1416098 3.00358635,1.1416098 L3.19705628,1.1416098 C3.30390677,1.1416098 3.39052621,1.22822923 3.39052621,1.33507972 L3.39052621,2.30242937 Z" id="Combined-Shape" fill="#4A4A4A"></path>
                        </g>
                        <g id="Group-7-Copy-5" transform="translate(18.490566, 0.000000)">
                            <rect id="Rectangle-11" fill="#FFFFFF" x="0" y="0" width="4.3908069" height="4.3908069" rx="1"></rect>
                            <path d="M1.63420344,2.30242937 C1.63420344,2.40927986 1.54758401,2.4958993 1.44073352,2.4958993 L1.24726359,2.4958993 C1.14041309,2.4958993 1.05379366,2.40927986 1.05379366,2.30242937 L1.05379366,1.33507972 C1.05379366,1.22822923 1.14041309,1.1416098 1.24726359,1.1416098 L1.44073352,1.1416098 C1.54758401,1.1416098 1.63420344,1.22822923 1.63420344,1.33507972 L1.63420344,2.30242937 Z M2.61801862,3.258802 L1.8441389,3.258802 L1.8441389,3.06533207 C1.8441389,2.85163109 2.01737778,2.67839221 2.23107876,2.67839221 C2.44477974,2.67839221 2.61801862,2.85163109 2.61801862,3.06533207 L2.61801862,3.258802 Z M3.39052621,2.30242937 C3.39052621,2.40927986 3.30390677,2.4958993 3.19705628,2.4958993 L3.00358635,2.4958993 C2.89673586,2.4958993 2.81011642,2.40927986 2.81011642,2.30242937 L2.81011642,1.33507972 C2.81011642,1.22822923 2.89673586,1.1416098 3.00358635,1.1416098 L3.19705628,1.1416098 C3.30390677,1.1416098 3.39052621,1.22822923 3.39052621,1.33507972 L3.39052621,2.30242937 Z" id="Combined-Shape" fill="#4A4A4A"></path>
                        </g>
                        <g id="Group-7-Copy-9" transform="translate(30.597484, 0.000000)">
                            <rect id="Rectangle-11" fill="#FFFFFF" x="0" y="0" width="4.3908069" height="4.3908069" rx="1"></rect>
                            <path d="M1.63420344,2.30242937 C1.63420344,2.40927986 1.54758401,2.4958993 1.44073352,2.4958993 L1.24726359,2.4958993 C1.14041309,2.4958993 1.05379366,2.40927986 1.05379366,2.30242937 L1.05379366,1.33507972 C1.05379366,1.22822923 1.14041309,1.1416098 1.24726359,1.1416098 L1.44073352,1.1416098 C1.54758401,1.1416098 1.63420344,1.22822923 1.63420344,1.33507972 L1.63420344,2.30242937 Z M2.61801862,3.258802 L1.8441389,3.258802 L1.8441389,3.06533207 C1.8441389,2.85163109 2.01737778,2.67839221 2.23107876,2.67839221 C2.44477974,2.67839221 2.61801862,2.85163109 2.61801862,3.06533207 L2.61801862,3.258802 Z M3.39052621,2.30242937 C3.39052621,2.40927986 3.30390677,2.4958993 3.19705628,2.4958993 L3.00358635,2.4958993 C2.89673586,2.4958993 2.81011642,2.40927986 2.81011642,2.30242937 L2.81011642,1.33507972 C2.81011642,1.22822923 2.89673586,1.1416098 3.00358635,1.1416098 L3.19705628,1.1416098 C3.30390677,1.1416098 3.39052621,1.22822923 3.39052621,1.33507972 L3.39052621,2.30242937 Z" id="Combined-Shape" fill="#4A4A4A"></path>
                        </g>
                    </g>
                    <circle id="Oval-5-Copy" fill="#FFFFFF" cx="43.21875" cy="15.8420139" r="1"></circle>
                    <circle id="Oval-5-Copy-3" fill="#FFFFFF" cx="47.125" cy="15.8420139" r="1"></circle>
                    <circle id="Oval-5-Copy-5" fill="#FFFFFF" cx="51.03125" cy="15.8420139" r="1"></circle>
                </g>
            </g>
        </g>
    </g>
</svg>