<svg width="20px" height="25px" viewBox="0 0 20 25" version="1.1" xmlns="http://www.w3.org/2000/svg" xmlns:xlink="http://www.w3.org/1999/xlink">
    <defs>
        <path d="M8.48466712,24.4956055 C1.32834579,14.210498 0,13.1549316 0,9.375 C0,4.19731445 4.23381284,0 9.45652174,0 C14.6792306,0 18.9130435,4.19731445 18.9130435,9.375 C18.9130435,13.1549316 17.5846977,14.210498 10.4283764,24.4956055 C9.9587517,25.1681641 8.95424253,25.1681152 8.48466712,24.4956055 Z M9.45652174,13.28125 C11.6326546,13.28125 13.3967391,11.532373 13.3967391,9.375 C13.3967391,7.21762695 11.6326546,5.46875 9.45652174,5.46875 C7.28038893,5.46875 5.51630435,7.21762695 5.51630435,9.375 C5.51630435,11.532373 7.28038893,13.28125 9.45652174,13.28125 Z" id="poeresetpath-1"></path>
        <path d="M10.5679351,2.59966669 C10.7683329,2.83749982 10.9502975,3.09111952 11.1116445,3.35836008 C11.6483771,4.24735551 11.9569527,5.2870805 11.9569527,6.39780974 C11.9569527,9.66718525 9.27386841,12.0617969 5.97847439,12.0689665 C2.68790172,12.0761362 0.00482135189,9.67196504 4.51190021e-13,6.40736932 C-0.00241067595,4.29470268 1.10891094,2.43775475 2.78433072,1.38620122 C2.92414992,1.29777513 3.10977197,1.34318312 3.19173495,1.48657679 L3.47619472,1.98606471 C3.55092567,2.1175089 3.50994418,2.28480151 3.38217835,2.36605792 C2.0442532,3.21686032 1.15712445,4.70337462 1.15712445,6.39780974 C1.15712445,9.03864303 3.30262409,10.9218172 5.96642101,10.9218172 C8.63021793,10.9218172 10.7998282,9.03864303 10.7998282,6.39780974 C10.7998282,5.2396271 10.3853604,4.17858538 9.69576398,3.35205951 C9.37647255,2.9693681 10.1698585,2.12722714 10.5679351,2.59966669 Z M6.55703834,5.14048548 C6.55703834,5.26341013 6.42686184,5.36398485 6.26775723,5.36398485 L5.68919502,5.36398485 C5.53009041,5.36398485 5.39991391,5.26341013 5.39991391,5.14048548 L5.39991391,0.223499369 C5.39991391,0.100574716 5.53009041,0 5.68919502,0 L6.26775723,0 C6.42686184,0 6.55703834,0.100574716 6.55703834,0.223499369 L6.55703834,5.14048548 Z M8.57280865,2.49562756 C8.58747078,2.28594936 8.76771225,2.12789279 8.9755663,2.14266571 L11.7514858,2.33677691 C12.2542318,2.37193233 12.4631999,3.00268564 12.0825783,3.33645874 C10.5944014,3.19667967 9.77004495,3.19717846 9.60950881,3.33795513 C9.44897266,3.4787318 9.34988531,4.2880154 9.31224675,5.76580593 C8.93162509,6.09957903 8.34153182,5.80304032 8.37699294,5.29592267 L8.57280865,2.49562756 Z" id="poeresetpath-2"></path>
    </defs>
    <g id="POE-Port-settings" stroke="none" stroke-width="1" fill="none" fill-rule="evenodd">
        <g id="PoE--PoE-Scheduling-popup" transform="translate(-1093.000000, -174.000000)">
            <g id="Reset-iocn" transform="translate(1093.000000, 174.000000)">
                <g id="Group-16">
                    <mask id="mask-2" fill="white">
                        <use xlink:href="#poeresetpath-1"></use>
                    </mask>
                    <use id="Mask" fill="#4C46BE" fill-rule="nonzero" xlink:href="#poeresetpath-1"></use>
                </g>
                <g id="Enable" transform="translate(0.869565, 0.862069)">
                    <ellipse id="Oval" fill="#4C46BE" cx="8.69565217" cy="8.62068966" rx="8.69565217" ry="8.62068966"></ellipse>
                    <g id="ic/Reflash/Reflash-3" transform="translate(2.608696, 2.586207)">
                        <g id="🎨icon-color">
                            <mask id="mask-4" fill="white">
                                <use xlink:href="#poeresetpath-2"></use>
                            </mask>
                            <use id="Mask" fill="#000000" fill-rule="nonzero" xlink:href="#poeresetpath-2"></use>
                            <g mask="url(#mask-4)" fill="#FFFFFF" id="Icon-Shade">
                                <rect x="0" y="0" width="12.173913" height="12.0689659"></rect>
                            </g>
                        </g>
                    </g>
                </g>
            </g>
        </g>
    </g>
</svg>