<svg viewBox="0 0 18 6">
  <path fill='currentColor' d="M16.5,0 L11.75,0 L10.25,0 L1.5,0 C0.671572875,0 1.01453063e-16,0.671572875 0,1.5 L0,4.5 C1.01453063e-16,5.32842712 0.671572875,6 1.5,6 L16.5,6 C17.3284271,6 18,5.32842712 18,4.5 L18,1.5 C18,0.671572875 17.3284271,0 16.5,0 Z M3,4 C2.44771525,4 2,3.55228475 2,3 C2,2.44771525 2.44771525,2 3,2 C3.55228475,2 4,2.44771525 4,3 C4,3.55228475 3.55228475,4 3,4 Z M6,4 C5.44771525,4 5,3.55228475 5,3 C5,2.44771525 5.44771525,2 6,2 C6.55228475,2 7,2.44771525 7,3 C7,3.55228475 6.55228475,4 6,4 Z" id="Shape"></path>
</svg>